<svg xmlns="http://www.w3.org/2000/svg" xmlns:xlink="http://www.w3.org/1999/xlink" viewBox="0,0,256,256" width="64px" height="64px" fill-rule="nonzero"><g fill="none" fill-rule="nonzero" stroke="none" stroke-width="1" stroke-linecap="butt" stroke-linejoin="miter" stroke-miterlimit="10" stroke-dasharray="" stroke-dashoffset="0" font-family="none" font-weight="none" font-size="none" text-anchor="none" style="mix-blend-mode: normal"><g transform="scale(4,4)"><path d="M1.064,6.267c-0.367,-0.942 0.93,-1.687 1.655,-0.982c2.16,2.103 5.546,5.409 11.311,7.715c10,4 12,10 12,10v9c0,3 -4.125,7 -10.125,7c-3.5,0 -4.706,-0.538 -6.206,-1.046c-0.833,-0.282 -0.905,-1.427 -0.123,-1.829c0.942,-0.484 2.552,-1.167 3.454,-2.125c-4,0 -7.07,-1.817 -8.677,-3.271c-0.653,-0.591 -0.251,-1.729 0.63,-1.729c3.547,0 5.047,-1 5.047,-1v-0.191c-4.614,-0.897 -6.827,-4.818 -7.918,-7.415c-0.348,-0.827 0.475,-1.66 1.303,-1.313c2.106,0.882 5.615,1.919 8.615,1.919v-0.23c-3.741,-2.569 -8.047,-7.02 -10.966,-14.503z" fill="#f9e3ae"></path><path d="M21.03,27c0,2.79 0.82,5.94 2.47,9.4c1.61,-1.34 2.53,-2.98 2.53,-4.4v-9c0,0 -0.47,-1.41 -2.09,-3.31c-0.44,0.45 -0.92,1 -1.35,1.68c-1.05,1.65 -1.56,3.48 -1.56,5.63z" fill="#efc88e"></path><path d="M18.03,29h-2c-0.552,0 -1,-0.447 -1,-1c0,-0.553 0.448,-1 1,-1h2c0.552,0 1,0.447 1,1c0,0.553 -0.447,1 -1,1zM19.434,45.669c-0.472,0 -0.892,-0.335 -0.982,-0.815l-0.37,-1.965c-0.102,-0.542 0.255,-1.065 0.798,-1.167c0.545,-0.104 1.066,0.255 1.168,0.798l0.37,1.965c0.102,0.542 -0.255,1.065 -0.798,1.167c-0.062,0.011 -0.125,0.017 -0.186,0.017zM14.523,45.974c-0.013,0 -0.027,0 -0.04,-0.001c-0.552,-0.021 -0.981,-0.487 -0.959,-1.039l0.08,-1.999c0.022,-0.552 0.5,-1.007 1.039,-0.959c0.552,0.021 0.981,0.487 0.959,1.039l-0.08,1.999c-0.022,0.538 -0.464,0.96 -0.999,0.96zM9.646,45.244c-0.09,0 -0.182,-0.012 -0.274,-0.038c-0.531,-0.15 -0.839,-0.704 -0.688,-1.235l0.546,-1.924c0.151,-0.53 0.699,-0.842 1.235,-0.688c0.531,0.15 0.839,0.704 0.688,1.235l-0.546,1.924c-0.124,0.439 -0.525,0.726 -0.961,0.726zM17.034,34.427c-0.425,0 -0.819,-0.273 -0.954,-0.7c-0.166,-0.527 0.127,-1.089 0.654,-1.254c0.589,-0.185 1.157,-0.417 1.689,-0.688c0.492,-0.253 1.094,-0.058 1.346,0.434c0.251,0.492 0.057,1.095 -0.435,1.346c-0.632,0.324 -1.305,0.599 -2,0.817c-0.1,0.03 -0.201,0.045 -0.3,0.045z" fill="#8d6c9f"></path><path d="M25.03,32c0,2.389 -3.64,6 -9.125,6c-3.016,0 -4.212,-0.414 -5.478,-0.854l-0.394,-0.132c0.157,-0.081 0.333,-0.168 0.522,-0.26c0.97,-0.476 2.287,-1.128 3.159,-2.031c0.011,-0.01 0.023,-0.018 0.033,-0.029c0.003,-0.003 0.007,-0.006 0.01,-0.009l-0.003,-0.002c0.169,-0.179 0.276,-0.417 0.276,-0.683c0,-0.553 -0.449,-1 -1.001,-1c-4.338,0 -7.225,-2.307 -8.047,-3c3.388,0 5.073,-0.853 5.497,-1.104c0.504,0.065 1.019,0.104 1.551,0.104c0.552,0 1,-0.447 1,-1c0,-0.553 -0.448,-1 -1,-1c-4.02,0 -7.047,-2.354 -9.001,-6.996c2.305,0.965 5.88,1.996 9.001,1.996c0.013,0 0.024,-0.007 0.037,-0.007c3.082,1.981 5.549,2.631 6.096,2.757c0.076,0.018 0.151,0.025 0.226,0.025c0.455,0 0.867,-0.313 0.973,-0.775c0.125,-0.538 -0.211,-1.074 -0.749,-1.199c-1.125,-0.26 -11.119,-2.932 -16.571,-16.778c2.127,2.07 5.686,5.533 11.616,7.906c9.378,3.751 11.405,9.337 11.423,9.388c0.174,0.523 0.738,0.808 1.265,0.632c0.524,-0.174 0.807,-0.74 0.632,-1.265c-0.088,-0.263 -2.265,-6.487 -12.577,-10.612c-5.565,-2.227 -8.815,-5.391 -10.984,-7.504c-0.684,-0.664 -1.727,-0.751 -2.541,-0.21c-0.774,0.514 -1.073,1.427 -0.743,2.272c2.421,6.208 5.738,10.333 8.875,13.061c-1.958,-0.359 -3.873,-0.974 -5.206,-1.531c-0.752,-0.316 -1.609,-0.146 -2.183,0.428c-0.578,0.578 -0.746,1.438 -0.429,2.194c1.44,3.426 3.415,5.789 5.899,7.074c-0.587,0.085 -1.282,0.144 -2.106,0.144c-0.808,0 -1.52,0.495 -1.815,1.262c-0.302,0.785 -0.1,1.652 0.515,2.208c0.731,0.661 3.035,2.513 6.504,3.234c-0.175,0.088 -0.352,0.177 -0.511,0.255c-0.201,0.099 -0.389,0.19 -0.557,0.277c-0.718,0.369 -1.143,1.127 -1.083,1.931c0.06,0.81 0.575,1.474 1.343,1.734l0.394,0.135c1.366,0.474 2.779,0.964 6.132,0.964c6.367,0 11.125,-4.224 11.125,-8z" fill="#8d6c9f"></path><path d="M40.846,52.052l-5,-15c-0.525,-1.572 -2.222,-2.423 -3.795,-1.897c-0.018,0.006 -0.033,0.017 -0.051,0.023c-0.018,-0.006 -0.033,-0.017 -0.051,-0.023c-1.575,-0.527 -3.271,0.324 -3.795,1.897l-5,15c-0.524,1.571 0.326,3.271 1.897,3.794c0.315,0.105 0.635,0.155 0.949,0.155c1.256,0 2.427,-0.795 2.846,-2.053l0.154,-0.461v2.513c0,1.657 1.343,3 3,3c1.657,0 3,-1.343 3,-3v-2.513l0.154,0.461c0.419,1.258 1.59,2.053 2.846,2.053c0.314,0 0.634,-0.05 0.949,-0.155c1.572,-0.524 2.421,-2.223 1.897,-3.794z" fill="#f6d397"></path><path d="M35,51l-1,-9.375h-4l-1,9.375v5c0,1.657 1.343,3 3,3c1.657,0 3,-1.343 3,-3z" fill="#f9e3ae"></path><path d="M41.795,51.735l-5,-15c-0.339,-1.014 -1.051,-1.836 -2.006,-2.313c-0.874,-0.437 -1.856,-0.54 -2.79,-0.295c-0.935,-0.244 -1.915,-0.144 -2.787,0.293c-0.957,0.478 -1.669,1.3 -2.007,2.315l-5,15c-0.338,1.014 -0.261,2.098 0.217,3.054c0.478,0.956 1.299,1.668 2.312,2.005c1.108,0.372 2.34,0.218 3.292,-0.343c0.224,1.994 1.921,3.549 3.974,3.549c2.053,0 3.75,-1.555 3.975,-3.549c0.953,0.561 2.187,0.713 3.29,0.344c1.014,-0.338 1.835,-1.05 2.313,-2.006c0.478,-0.956 0.555,-2.04 0.217,-3.054zM39.789,53.895c-0.239,0.478 -0.649,0.834 -1.158,1.003c-1.031,0.342 -2.188,-0.243 -2.529,-1.266l-0.102,-0.308v-1.324c0,-0.553 -0.448,-1 -1,-1c-0.552,0 -1,0.447 -1,1v4c0,1.103 -0.897,2 -2,2c-1.103,0 -2,-0.897 -2,-2v-4c0,-0.553 -0.448,-1 -1,-1c-0.552,0 -1,0.447 -1,1v1.324l-0.103,0.308c-0.341,1.023 -1.489,1.614 -2.53,1.265c-0.507,-0.168 -0.917,-0.524 -1.156,-1.002c-0.239,-0.478 -0.277,-1.02 -0.108,-1.526l5,-15.001c0.169,-0.508 0.526,-0.92 1.004,-1.158c0.46,-0.23 0.983,-0.273 1.482,-0.12c0.021,0.01 0.042,0.019 0.058,0.024c0.229,0.086 0.479,0.086 0.708,0c0.016,-0.006 0.037,-0.015 0.058,-0.024c0.495,-0.153 1.019,-0.109 1.482,0.122c0.478,0.238 0.834,0.65 1.003,1.157l5,15c0.168,0.506 0.13,1.048 -0.109,1.526z" fill="#8d6c9f"></path><path d="M62.966,6.267c0.367,-0.942 -0.93,-1.687 -1.655,-0.982c-2.16,2.103 -5.545,5.409 -11.311,7.715c-10,4 -12,10 -12,10v9c0,3 4.125,7 10.125,7c3.5,0 4.706,-0.538 6.206,-1.046c0.833,-0.282 0.905,-1.427 0.123,-1.829c-0.942,-0.484 -2.552,-1.167 -3.454,-2.125c4,0 7.07,-1.817 8.677,-3.271c0.653,-0.591 0.251,-1.729 -0.63,-1.729c-3.547,0 -5.047,-1 -5.047,-1v-0.191c4.614,-0.897 6.827,-4.818 7.918,-7.415c0.348,-0.827 -0.475,-1.66 -1.303,-1.313c-2.106,0.882 -5.615,1.919 -8.615,1.919v-0.23c3.741,-2.569 8.048,-7.02 10.966,-14.503z" fill="#f9e3ae"></path><path d="M41.44,21.37c-0.43,-0.68 -0.91,-1.23 -1.35,-1.68c-1.62,1.9 -2.09,3.31 -2.09,3.31v9c0,1.42 0.92,3.06 2.53,4.4c1.65,-3.46 2.47,-6.61 2.47,-9.4c0,-2.15 -0.51,-3.98 -1.56,-5.63z" fill="#efc88e"></path><path d="M48,29h-2c-0.552,0 -1,-0.447 -1,-1c0,-0.553 0.448,-1 1,-1h2c0.552,0 1,0.447 1,1c0,0.553 -0.448,1 -1,1zM44.596,45.669c-0.061,0 -0.124,-0.006 -0.186,-0.018c-0.542,-0.102 -0.9,-0.625 -0.798,-1.167l0.37,-1.965c0.102,-0.542 0.622,-0.9 1.168,-0.798c0.542,0.102 0.9,0.625 0.798,1.167l-0.37,1.965c-0.09,0.481 -0.51,0.816 -0.982,0.816zM49.507,45.974c-0.534,0 -0.977,-0.422 -0.999,-0.96l-0.08,-1.999c-0.022,-0.552 0.407,-1.018 0.959,-1.039c0.556,-0.049 1.017,0.407 1.039,0.959l0.08,1.999c0.022,0.552 -0.407,1.018 -0.959,1.039c-0.013,0.001 -0.027,0.001 -0.04,0.001zM54.384,45.244c-0.436,0 -0.836,-0.287 -0.961,-0.727l-0.546,-1.924c-0.151,-0.531 0.157,-1.085 0.688,-1.235c0.533,-0.152 1.084,0.158 1.235,0.688l0.546,1.924c0.151,0.531 -0.157,1.085 -0.688,1.235c-0.092,0.027 -0.184,0.039 -0.274,0.039zM46.997,34.426c-0.099,0 -0.199,-0.015 -0.299,-0.046c-0.694,-0.217 -1.368,-0.491 -2.002,-0.816c-0.492,-0.251 -0.686,-0.854 -0.435,-1.346c0.25,-0.492 0.854,-0.688 1.346,-0.434c0.534,0.272 1.102,0.504 1.688,0.688c0.527,0.164 0.821,0.726 0.656,1.252c-0.134,0.428 -0.529,0.702 -0.954,0.702z" fill="#8d6c9f"></path><path d="M63.897,6.631c0.33,-0.846 0.031,-1.759 -0.744,-2.272c-0.813,-0.541 -1.859,-0.455 -2.56,0.229c-2.151,2.094 -5.402,5.258 -10.966,7.483c-10.312,4.125 -12.489,10.35 -12.577,10.612c-0.175,0.524 0.108,1.091 0.632,1.265c0.525,0.176 1.091,-0.108 1.265,-0.632c0.019,-0.056 1.963,-5.604 11.423,-9.388c5.827,-2.331 9.364,-5.715 11.568,-7.785c-5.461,13.742 -15.401,16.398 -16.523,16.657c-0.538,0.125 -0.874,0.661 -0.749,1.199c0.106,0.463 0.518,0.775 0.973,0.775c0.075,0 0.15,-0.008 0.226,-0.025c0.547,-0.126 3.014,-0.776 6.096,-2.757c0.015,0.001 0.026,0.008 0.039,0.008c3.121,0 6.696,-1.031 8.997,-1.994c-1.95,4.64 -4.977,6.994 -8.997,6.994c-0.552,0 -1,0.447 -1,1c0,0.553 0.448,1 1,1c0.532,0 1.047,-0.039 1.55,-0.104c0.42,0.25 2.082,1.091 5.457,1.091c-0.782,0.706 -3.669,3.013 -8.007,3.013h-0.003c-0.552,0 -0.999,0.447 -0.999,1c0,0.266 0.108,0.503 0.277,0.682l-0.003,0.003c0.004,0.004 0.01,0.008 0.014,0.012c0.008,0.008 0.016,0.014 0.025,0.022c0.872,0.906 2.193,1.558 3.164,2.035c0.188,0.092 0.365,0.179 0.535,0.252l-0.407,0.14c-1.266,0.44 -2.462,0.854 -5.478,0.854c-5.485,0 -9.125,-3.611 -9.125,-6h-2c0,3.776 4.758,8 11.125,8c3.353,0 4.766,-0.49 6.133,-0.964l0.394,-0.135c0.768,-0.261 1.282,-0.925 1.342,-1.734c0.06,-0.804 -0.365,-1.562 -1.083,-1.932c-0.167,-0.086 -0.355,-0.178 -0.557,-0.276c-0.159,-0.078 -0.336,-0.167 -0.511,-0.255c3.469,-0.722 5.773,-2.573 6.504,-3.234c0.615,-0.556 0.817,-1.423 0.515,-2.208c-0.295,-0.767 -1.007,-1.262 -1.815,-1.262c-0.825,0 -1.519,-0.059 -2.106,-0.144c2.484,-1.285 4.46,-3.649 5.899,-7.075c0.317,-0.755 0.149,-1.615 -0.429,-2.193c-0.575,-0.573 -1.431,-0.741 -2.183,-0.429c-1.333,0.558 -3.247,1.173 -5.206,1.532c3.138,-2.728 6.455,-6.853 8.875,-13.06z" fill="#8d6c9f"></path><path d="M39,27c0,5.51 -4.34,11.96 -6.19,14.58c-0.39,0.56 -1.23,0.56 -1.62,0c-1.85,-2.62 -6.19,-9.07 -6.19,-14.58c0,-1.56 0.39,-2.63 0.93,-3.46v-0.01c1.18,-1.82 3.07,-2.47 3.07,-4.53c0,-2.61 -2.95,-4 -3,-4c1,-2 3,-2 3,-2c1,-2 3,-2 3,-2c2,0 3,-2 3,-2v10c0,2.07 1.9,2.71 3.08,4.54c0.53,0.83 0.92,1.9 0.92,3.46z" fill="#ed7899"></path><path d="M35,19h-6c0,1.255 -0.698,1.984 -1.511,2.772c-1.078,1.044 -1.211,2.725 -0.331,3.941c1.149,1.589 2.377,2.451 2.622,2.617c0.67,0.45 1.45,0.67 2.22,0.67c0.77,0 1.55,-0.22 2.22,-0.67c0.245,-0.166 1.473,-1.028 2.622,-2.617c0.88,-1.216 0.747,-2.896 -0.331,-3.941c-0.813,-0.788 -1.511,-1.517 -1.511,-2.772z" fill="#f283a5"></path><path d="M29,19c0,4 3,6 3,6c0,0 3,-2 3,-6c0,-6 0,-7 0,-10c0,0 -1,2 -3,2c0,0 -2,0 -3,2c0,0 -2,0 -3,2c0.026,-0.009 3,1.375 3,4z" fill="#f9e3ae"></path><path d="M32.001,23.7c-0.751,-0.724 -2.001,-2.293 -2.001,-4.7h-2c0,4.483 3.305,6.738 3.445,6.832c0.168,0.112 0.362,0.168 0.555,0.168c0.193,0 0.387,-0.056 0.555,-0.168c0.14,-0.094 3.445,-2.349 3.445,-6.832h-2c0,2.413 -1.246,3.977 -1.999,4.7z" fill="#8d6c9f"></path><path d="M37.316,21.16c-0.864,-0.837 -1.316,-1.313 -1.316,-2.16v-10c0,-0.461 -0.317,-0.859 -0.765,-0.969c-0.453,-0.107 -0.915,0.106 -1.126,0.516c-0.008,0.015 -0.767,1.453 -2.109,1.453c-0.1,0 -2.298,0.025 -3.619,2.068c-0.853,0.16 -2.381,0.696 -3.276,2.484c-0.181,0.362 -0.125,0.799 0.141,1.104c0.111,0.127 0.249,0.221 0.4,0.278c0.198,0.097 2.354,1.201 2.354,3.066c0,0.847 -0.452,1.323 -1.317,2.16c-1.132,1.097 -2.683,2.599 -2.683,5.839c0,4.051 2.143,9.149 6.368,15.154c0.374,0.531 0.984,0.847 1.632,0.847c0.648,0 1.258,-0.316 1.632,-0.848c4.225,-6.004 6.368,-11.101 6.368,-15.152c0,-3.241 -1.551,-4.743 -2.684,-5.84zM32.003,41.002c-3.983,-5.661 -6.003,-10.372 -6.003,-14.003c0,-2.394 1.008,-3.369 2.074,-4.401c0.903,-0.874 1.926,-1.865 1.926,-3.598c0,-1.602 -0.88,-3.113 -2.479,-4.259c-0.025,-0.018 -0.049,-0.035 -0.073,-0.052c0.695,-0.659 1.516,-0.688 1.552,-0.689h1c0.552,0 1,-0.447 1,-1v-0.7c0.516,-0.274 0.974,-0.3 1,-0.3c0.79,0 1.455,-0.228 2,-0.548v7.548c0,1.733 1.023,2.724 1.925,3.598c1.067,1.033 2.075,2.008 2.075,4.402c0,3.63 -2.02,8.341 -5.997,14.002z" fill="#8d6c9f"></path></g></g><g fill="none" fill-rule="nonzero" stroke="none" stroke-width="1" stroke-linecap="butt" stroke-linejoin="miter" stroke-miterlimit="10" stroke-dasharray="" stroke-dashoffset="0" font-family="none" font-weight="none" font-size="none" text-anchor="none" style="mix-blend-mode: normal"><g transform="translate(88,80) scale(2.71429,2.71429)" id="overlay"><path d="M27,16v-4l-3.342,-0.557c-0.231,-0.875 -0.575,-1.702 -1.02,-2.465l1.969,-2.756l-2.828,-2.828l-2.756,1.969c-0.763,-0.445 -1.59,-0.788 -2.465,-1.02l-0.558,-3.343h-4l-0.557,3.342c-0.875,0.231 -1.701,0.575 -2.465,1.02l-2.756,-1.969l-2.829,2.829l1.969,2.756c-0.445,0.763 -0.789,1.59 -1.02,2.465l-3.342,0.557v4l3.342,0.557c0.231,0.875 0.575,1.701 1.02,2.465l-1.969,2.756l2.828,2.828l2.756,-1.969c0.763,0.445 1.59,0.789 2.465,1.02l0.558,3.343h4l0.557,-3.342c0.875,-0.231 1.702,-0.575 2.465,-1.02l2.756,1.969l2.828,-2.828l-1.969,-2.756c0.445,-0.763 0.789,-1.59 1.02,-2.465z" fill="#f9dd8f"></path><path transform="translate(14,14)" d="M-4,0c0,-2.20914 1.79086,-4 4,-4c2.20914,0 4,1.79086 4,4c0,2.20914 -1.79086,4 -4,4c-2.20914,0 -4,-1.79086 -4,-4z" fill="#faefde"></path><path d="M16,28h-4c-0.489,0 -0.906,-0.354 -0.986,-0.836l-0.454,-2.726c-0.52,-0.171 -1.024,-0.379 -1.509,-0.624l-2.248,1.606c-0.396,0.283 -0.942,0.239 -1.288,-0.106l-2.828,-2.828c-0.346,-0.346 -0.391,-0.891 -0.106,-1.288l1.605,-2.248c-0.245,-0.485 -0.453,-0.989 -0.624,-1.508l-2.726,-0.455c-0.482,-0.081 -0.836,-0.498 -0.836,-0.987v-4c0,-0.489 0.354,-0.906 0.836,-0.986l2.726,-0.455c0.17,-0.519 0.378,-1.023 0.624,-1.508l-1.606,-2.248c-0.284,-0.398 -0.239,-0.943 0.107,-1.288l2.828,-2.828c0.345,-0.347 0.891,-0.392 1.288,-0.107l2.248,1.605c0.484,-0.244 0.989,-0.453 1.509,-0.624l0.454,-2.726c0.08,-0.481 0.497,-0.835 0.986,-0.835h4c0.489,0 0.906,0.354 0.986,0.836l0.454,2.726c0.52,0.171 1.024,0.379 1.509,0.624l2.248,-1.605c0.396,-0.285 0.941,-0.24 1.288,0.107l2.828,2.828c0.346,0.346 0.391,0.891 0.106,1.288l-1.605,2.248c0.245,0.485 0.453,0.989 0.624,1.508l2.726,0.455c0.482,0.079 0.836,0.496 0.836,0.985v4c0,0.489 -0.354,0.906 -0.836,0.986l-2.726,0.455c-0.171,0.519 -0.379,1.023 -0.624,1.508l1.605,2.248c0.284,0.397 0.239,0.942 -0.106,1.288l-2.828,2.828c-0.347,0.346 -0.892,0.391 -1.288,0.106l-2.248,-1.605c-0.484,0.245 -0.989,0.453 -1.509,0.624l-0.454,2.726c-0.08,0.482 -0.497,0.836 -0.986,0.836zM12.848,26h2.305l0.418,-2.506c0.064,-0.388 0.351,-0.702 0.73,-0.803c0.783,-0.207 1.529,-0.516 2.218,-0.917c0.34,-0.199 0.765,-0.179 1.085,0.05l2.066,1.476l1.631,-1.63l-1.477,-2.067c-0.229,-0.32 -0.249,-0.745 -0.05,-1.085c0.401,-0.689 0.71,-1.435 0.916,-2.216c0.101,-0.38 0.414,-0.667 0.803,-0.731l2.507,-0.418v-2.306l-2.507,-0.418c-0.389,-0.064 -0.702,-0.351 -0.803,-0.731c-0.206,-0.781 -0.515,-1.526 -0.916,-2.216c-0.199,-0.34 -0.18,-0.765 0.05,-1.085l1.477,-2.067l-1.631,-1.63l-2.067,1.477c-0.321,0.229 -0.746,0.247 -1.085,0.05c-0.688,-0.401 -1.433,-0.71 -2.217,-0.917c-0.38,-0.101 -0.666,-0.415 -0.73,-0.803l-0.419,-2.507h-2.305l-0.417,2.506c-0.064,0.388 -0.351,0.702 -0.73,0.803c-0.784,0.207 -1.529,0.516 -2.217,0.917c-0.34,0.197 -0.765,0.179 -1.085,-0.05l-2.068,-1.476l-1.631,1.63l1.477,2.067c0.229,0.32 0.249,0.745 0.05,1.085c-0.401,0.689 -0.71,1.435 -0.916,2.216c-0.101,0.38 -0.414,0.667 -0.803,0.731l-2.507,0.418v2.306l2.507,0.418c0.389,0.064 0.702,0.351 0.803,0.731c0.206,0.781 0.515,1.526 0.916,2.216c0.199,0.34 0.18,0.765 -0.05,1.085l-1.477,2.067l1.631,1.63l2.066,-1.476c0.319,-0.229 0.745,-0.249 1.085,-0.05c0.688,0.401 1.435,0.71 2.218,0.917c0.38,0.101 0.666,0.415 0.73,0.803zM27,16h0.01zM14,19c-2.757,0 -5,-2.243 -5,-5c0,-2.757 2.243,-5 5,-5c2.757,0 5,2.243 5,5c0,2.757 -2.243,5 -5,5zM14,11c-1.654,0 -3,1.346 -3,3c0,1.654 1.346,3 3,3c1.654,0 3,-1.346 3,-3c0,-1.654 -1.346,-3 -3,-3z" fill="#8d6c9f"></path></g></g></svg>